#!OML:ASF X:\für Bonn\!DataBase\2005_08_12_Daniel\c3d\Daniel.ASF
:FULLY-SPECIFIED
:DEGREES
246
root 21.0071 1.41154 -0.0330976 -1270.73 260.895 90.4674
lowerback 48.6291 0.251424 6.11849
upperback 18.6311 -0.14918 -2.76187
thorax 0.479486 -1.08255 -5.77666
lowerneck 13.0899 16.8441 3.64041
upperneck 10.1702 22.6624 -7.21117
head 2.60797 11.0816 -3.13255
rclavicle 2.38542e-014 1.59028e-015
rhumerus -375.327 35.6613 265.807
rradius 79.0437
rwrist -12.0608
rhand -13.1888 741.093
rfingers 7.12502
rthumb 12.9112 711.513
lclavicle 2.38542e-014 1.59028e-015
lhumerus -372.399 -9.62076 -271.072
lradius 97.4678
lwrist 17.909
lhand -36.5695 -726.619
lfingers 7.12502
lthumb -9.65929 23.1391
rfemur -20.6277 -28.7117 14.09
rtibia 70.2847
rfoot 386.889 6.54156
rtoes 5.1994
lfemur -46.3248 41.4104 -30.2125
ltibia 125.17
lfoot 24.888 -4.29457
ltoes 7.85077
247
root 21.0279 1.40879 -0.0383706 -1270.83 261.069 89.936
lowerback 48.1172 0.251069 5.86671
upperback 18.6618 -0.27017 -2.8485
thorax 0.558428 -1.14707 -5.71794
lowerneck 13.0871 16.7689 3.33146
upperneck 10.2423 22.5153 -7.01871
head 2.55716 10.9932 -3.03175
rclavicle -3.02153e-014 -4.77083e-014
rhumerus -376.315 35.4601 264.776
rradius 79.4259
rwrist -12.2359
rhand -13.3592 741.373
rfingers 7.12502
rthumb 12.7469 711.782
lclavicle -3.02153e-014 -4.77083e-014
lhumerus -371.746 -10.0772 -270.946
lradius 98.1239
lwrist 17.9867
lhand -35.4205 -727.098
lfingers 7.12502
lthumb -8.55054 22.7092
rfemur -19.2455 -27.6441 13.8038
rtibia 68.7824
rfoot 386.5 6.40882
rtoes 5.27616
lfemur -45.7498 41.1437 -29.5237
ltibia 124.946
lfoot 25.2001 -4.12893
ltoes 7.63526
248
root 21.0487 1.40638 -0.0436206 -1271.01 261.244 89.4623
lowerback 46.6534 0.307601 5.59261
upperback 19.5777 -0.390661 -2.81468
thorax 0.758758 -1.22035 -5.70272
lowerneck 13.0641 16.6971 2.9219
upperneck 10.2563 22.3562 -6.80684
head 2.47455 10.8971 -2.9126
rclavicle 1.27222e-014 -4.92986e-014
rhumerus -377.266 35.2397 263.795
rradius 79.8736
rwrist -12.2691
rhand -13.402 741.649
rfingers 7.12502
rthumb 12.7056 712.056
lclavicle 1.27222e-014 -4.92986e-014
lhumerus -371.129 -10.5346 -270.852
lradius 98.8318
lwrist 17.981
lhand -34.2418 -727.491
lfingers 7.12502
lthumb -7.41301 22.3594
rfemur -17.8526 -26.5859 13.4984
rtibia 67.3372
rfoot 386.201 6.24047
rtoes 5.42561
lfemur -45.0718 40.8989 -28.7823
ltibia 124.703
lfoot 25.5291 -3.99186
ltoes 7.3752
249
root 21.0706 1.40419 -0.048271 -1271.09 261.395 88.8519
lowerback 46.1971 0.276148 5.37648
upperback 19.601 -0.526175 -2.90824
thorax 0.864027 -1.29294 -5.65221
lowerneck 13.0104 16.62 2.49445
upperneck 10.2637 22.1879 -6.56521
head 2.38926 10.7964 -2.77935
rclavicle -6.36111e-015 1.11319e-014
rhumerus -378.194 34.9998 262.828
rradius 80.3559
rwrist -12.277
rhand -13.432 741.961
rfingers 7.12502
rthumb 12.6768 712.366
lclavicle -6.36111e-015 1.11319e-014
lhumerus -370.584 -11.0236 -270.792
lradius 99.5371
lwrist 17.981
lhand -33.0937 -728.027
lfingers 7.12502
lthumb -6.30467 21.8588
rfemur -16.4536 -25.5313 13.2148
rtibia 65.9509
rfoot 386.024 5.93677
rtoes 6.06168
lfemur -44.3591 40.6538 -27.9907
ltibia 124.462
lfoot 25.9462 -3.88343
ltoes 7.09172
250
root 21.0931 1.40309 -0.0540325 -1271.22 261.551 88.3478
lowerback 45.6782 0.264101 5.13026
upperback 19.6075 -0.643634 -3.00239
thorax 0.968653 -1.35548 -5.5942
lowerneck 13.0681 16.5159 2.09215
upperneck 10.1826 21.9802 -6.35779
head 2.26281 10.682 -2.67515
rclavicle 7.95139e-015 4.77083e-014
rhumerus -379.11 34.7843 261.878
rradius 80.8427
rwrist -12.2497
rhand -13.4695 742.18
rfingers 7.12502
rthumb 12.6406 712.583
lclavicle 7.95139e-015 4.77083e-014
lhumerus -370.151 -11.5199 -270.744
lradius 100.175
lwrist 17.9132
lhand -32.039 -728.509
lfingers 7.12502
lthumb -5.28634 21.4049
rfemur -15.1652 -24.4769 12.9776
rtibia 64.6383
rfoot 385.887 5.64226
rtoes 6.55854
lfemur -43.7188 40.3804 -27.2878
ltibia 124.212
lfoot 26.3994 -3.77109
ltoes 6.6635
251
root 21.1143 1.40137 -0.0599942 -1271.1 261.692 87.637
lowerback 45.1087 0.230393 4.94866
upperback 19.6137 -0.7558 -3.10229
thorax 1.08998 -1.40684 -5.57825
lowerneck 13.1638 16.393 1.72288
upperneck 10.0214 21.7489 -6.19479
head 2.11344 10.5607 -2.59584
rclavicle -4.77083e-015 3.18055e-015
rhumerus -379.942 34.5614 260.996
rradius 81.3142
rwrist -12.2695
rhand -13.4649 742.422
rfingers 7.12502
rthumb 12.645 712.825
lclavicle -4.77083e-015 3.18055e-015
lhumerus -369.767 -12.0932 -270.756
lradius 100.763
lwrist 17.8844
lhand -31.1553 -729.11
lfingers 7.12502
lthumb -4.43312 20.8233
rfemur -13.9584 -23.462 12.824
rtibia 63.3924
rfoot 385.733 5.44345
rtoes 6.64101
lfemur -43.1775 40.0704 -26.6242
ltibia 123.985
lfoot 26.9684 -3.72463
ltoes 6.34502
252
root 21.1322 1.39906 -0.0651247 -1270.96 261.823 86.8839
lowerback 44.5533 0.191956 4.78196
upperback 19.609 -0.862206 -3.17976
thorax 1.20102 -1.45532 -5.54759
lowerneck 13.3372 16.2507 1.33416
upperneck 9.79302 21.4829 -6.07691
head 1.93321 10.4243 -2.53747
rclavicle 1.11319e-014 -2.70347e-014
rhumerus -380.779 34.3619 260.171
rradius 81.8207
rwrist -12.3207
rhand -13.476 742.695
rfingers 7.12502
rthumb 12.6343 713.098
lclavicle 1.11319e-014 -2.70347e-014
lhumerus -369.441 -12.6473 -270.704
lradius 101.327
lwrist 17.8241
lhand -30.3496 -729.754
lfingers 7.12502
lthumb -3.65509 20.1941
rfemur -12.7716 -22.5024 12.6922
rtibia 62.2256
rfoot 385.59 5.34981
rtoes 6.35715
lfemur -42.6085 39.7764 -25.9395
ltibia 123.782
lfoot 27.6094 -3.65876
ltoes 6.28659
253
root 21.151 1.39751 -0.0701569 -1270.83 261.961 86.1453
lowerback 43.9733 0.176634 4.58779
upperback 19.5967 -0.94539 -3.22572
thorax 1.31645 -1.49502 -5.47773
lowerneck 13.6177 16.0946 0.97765
upperneck 9.47119 21.1946 -6.04168
head 1.72025 10.2822 -2.52167
rclavicle 0 9.38264e-014
rhumerus -381.584 34.1979 259.426
rradius 82.3361
rwrist -12.3891
rhand -13.4605 742.918
rfingers 7.12502
rthumb 12.6493 713.321
lclavicle 0 9.38264e-014
lhumerus -369.134 -13.1819 -270.62
lradius 101.882
lwrist 17.7092
lhand -29.5952 -730.461
lfingers 7.12502
lthumb -2.92656 19.4991
rfemur -11.6208 -21.5785 12.5889
rtibia 61.1136
rfoot 385.491 5.36938
rtoes 5.84058
lfemur -42.0458 39.5044 -25.2525
ltibia 123.582
lfoot 28.2511 -3.71939
ltoes 5.75559
254
root 21.1685 1.3957 -0.0757135 -1270.85 262.09 85.5497
lowerback 43.3924 0.167407 4.36677
upperback 19.5962 -1.03113 -3.26769
thorax 1.44924 -1.53956 -5.38994
lowerneck 13.8699 15.9175 0.614291
upperneck 9.12786 20.8771 -6.04137
head 1.50904 10.126 -2.51235
rclavicle -1.11319e-014 3.49861e-014
rhumerus -382.364 34.1056 258.722
rradius 82.8995
rwrist -12.5353
rhand -13.5078 743.077
rfingers 7.12502
rthumb 12.6037 713.477
lclavicle -1.11319e-014 3.49861e-014
lhumerus -368.862 -13.6971 -270.534
lradius 102.476
lwrist 17.5624
lhand -28.8403 -731.195
lfingers 7.12502
lthumb -2.1975 18.7731
rfemur -10.4887 -20.6682 12.4734
rtibia 60.0702
rfoot 385.463 5.22205
rtoes 5.68764
lfemur -41.4508 39.2144 -24.5953
ltibia 123.376
lfoot 28.8432 -3.68754
ltoes 5.13989
255
root 21.1844 1.39313 -0.0808388 -1270.62 262.218 84.7123
lowerback 42.8107 0.143606 4.18188
upperback 19.578 -1.11546 -3.30395
thorax 1.56693 -1.5797 -5.31463
lowerneck 14.131 15.7189 0.265645
upperneck 8.805 20.5313 -6.04689
head 1.30653 9.95582 -2.50467
rclavicle -1.11319e-014 -1.59028e-015
rhumerus -383.173 34.004 258.001
rradius 83.4962
rwrist -12.7134
rhand -13.4816 743.19
rfingers 7.12502
rthumb 12.6289 713.591
lclavicle -1.11319e-014 -1.59028e-015
lhumerus -368.633 -14.1881 -270.458
lradius 103.084
lwrist 17.4329
lhand -27.9737 -731.927
lfingers 7.12502
lthumb -1.36053 18.0483
rfemur -9.39392 -19.7847 12.4172
rtibia 59.0808
rfoot 385.5 5.05819
rtoes 5.55406
lfemur -40.8913 38.9316 -23.9056
ltibia 123.201
lfoot 29.438 -3.6417
ltoes 4.58188
256
root 21.1996 1.39171 -0.0856294 -1270.53 262.355 84.0055
lowerback 42.216 0.135642 3.96978
upperback 19.5738 -1.18985 -3.33517
thorax 1.70906 -1.61794 -5.22477
lowerneck 14.3421 15.5004 -0.0406157
upperneck 8.52143 20.1694 -6.09909
head 1.13588 9.77731 -2.50849
rclavicle 1.74931e-014 5.88403e-014
rhumerus -383.959 33.9764 257.347
rradius 84.1518
rwrist -12.927
rhand -13.4778 743.212
rfingers 7.12502
rthumb 12.6326 713.614
lclavicle 1.74931e-014 5.88403e-014
lhumerus -368.405 -14.6818 -270.391
lradius 103.704
lwrist 17.3207
lhand -27.0431 -732.654
lfingers 7.12502
lthumb -0.46173 17.3251
rfemur -8.3138 -18.9215 12.3506
rtibia 58.1439
rfoot 385.637 4.69071
rtoes 5.61071
lfemur -40.2966 38.6478 -23.2333
ltibia 123.015
lfoot 29.9548 -3.6154
ltoes 3.94301
